<mxfile host="Electron" agent="Mozilla/5.0 (Macintosh; Intel Mac OS X 10_15_7) AppleWebKit/537.36 (KHTML, like Gecko) draw.io/26.1.1 Chrome/132.0.6834.210 Electron/34.3.3 Safari/537.36" version="26.1.1">
  <diagram name="Page-1" id="QxTAiWj9wXuuiP1tl3Gy">
    <mxGraphModel dx="1114" dy="878" grid="1" gridSize="10" guides="1" tooltips="1" connect="1" arrows="1" fold="1" page="1" pageScale="1" pageWidth="827" pageHeight="1169" math="0" shadow="0">
      <root>
        <mxCell id="0" />
        <mxCell id="1" parent="0" />
        <mxCell id="h077I5kBzpLJY7_-XRN1-1" value="제품팀" style="rounded=1;whiteSpace=wrap;html=1;verticalAlign=top;fontStyle=1;fontSize=13;" vertex="1" parent="1">
          <mxGeometry x="110" y="120" width="210" height="170" as="geometry" />
        </mxCell>
        <mxCell id="h077I5kBzpLJY7_-XRN1-2" value="백엔드" style="rounded=0;whiteSpace=wrap;html=1;" vertex="1" parent="1">
          <mxGeometry x="130" y="185" width="70" height="40" as="geometry" />
        </mxCell>
        <mxCell id="h077I5kBzpLJY7_-XRN1-3" value="" style="shape=cylinder3;whiteSpace=wrap;html=1;boundedLbl=1;backgroundOutline=1;size=15;fillColor=#f5f5f5;fontColor=#333333;strokeColor=#666666;" vertex="1" parent="1">
          <mxGeometry x="240" y="180" width="60" height="50" as="geometry" />
        </mxCell>
        <mxCell id="h077I5kBzpLJY7_-XRN1-4" value="실시간&lt;div&gt;처리 데이터&lt;/div&gt;" style="text;html=1;align=center;verticalAlign=middle;whiteSpace=wrap;rounded=0;" vertex="1" parent="1">
          <mxGeometry x="240" y="233" width="60" height="30" as="geometry" />
        </mxCell>
        <mxCell id="h077I5kBzpLJY7_-XRN1-5" value="제품팀" style="rounded=1;whiteSpace=wrap;html=1;verticalAlign=top;fontStyle=1;fontSize=13;" vertex="1" parent="1">
          <mxGeometry x="390" y="120" width="140" height="170" as="geometry" />
        </mxCell>
        <mxCell id="h077I5kBzpLJY7_-XRN1-7" value="" style="shape=cylinder3;whiteSpace=wrap;html=1;boundedLbl=1;backgroundOutline=1;size=15;fillColor=#dae8fc;strokeColor=#6c8ebf;" vertex="1" parent="1">
          <mxGeometry x="430" y="175" width="60" height="50" as="geometry" />
        </mxCell>
        <mxCell id="h077I5kBzpLJY7_-XRN1-8" value="엔터프라이즈&lt;div&gt;데이터 웨어하우스&lt;/div&gt;" style="text;html=1;align=center;verticalAlign=middle;whiteSpace=wrap;rounded=0;" vertex="1" parent="1">
          <mxGeometry x="415" y="228" width="90" height="30" as="geometry" />
        </mxCell>
        <mxCell id="h077I5kBzpLJY7_-XRN1-9" style="edgeStyle=orthogonalEdgeStyle;rounded=0;orthogonalLoop=1;jettySize=auto;html=1;entryX=0;entryY=0;entryDx=0;entryDy=30;entryPerimeter=0;endArrow=block;endFill=1;" edge="1" parent="1" source="h077I5kBzpLJY7_-XRN1-3" target="h077I5kBzpLJY7_-XRN1-7">
          <mxGeometry relative="1" as="geometry" />
        </mxCell>
        <mxCell id="h077I5kBzpLJY7_-XRN1-10" value="ETL" style="edgeLabel;html=1;align=center;verticalAlign=middle;resizable=0;points=[];fontSize=13;fontStyle=1" vertex="1" connectable="0" parent="h077I5kBzpLJY7_-XRN1-9">
          <mxGeometry x="-0.2615" y="2" relative="1" as="geometry">
            <mxPoint x="2" y="1" as="offset" />
          </mxGeometry>
        </mxCell>
      </root>
    </mxGraphModel>
  </diagram>
</mxfile>
